<?xml version="1.0" encoding="iso-8859-1"?>
<!-- Uploaded to: SVG Repo, www.svgrepo.com, Generator: SVG Repo Mixer Tools -->
<svg version="1.1" id="Layer_1" xmlns="http://www.w3.org/2000/svg" xmlns:xlink="http://www.w3.org/1999/xlink" 
	 viewBox="0 0 512 512" xml:space="preserve">
<path style="fill:#FBD867;" d="M505.657,199.16C479.804,85.132,377.848,0,256,0C114.616,0,0,114.616,0,256
	c0,117.298,78.891,216.164,186.507,246.448L505.657,199.16z"/>
<path style="fill:#F9BE02;" d="M512,256c0-19.536-2.198-38.558-6.343-56.84l-57.056-57.056l-74.264-58.524L98.029,413.971
	l88.477,88.477c22.1,6.22,45.407,9.552,69.494,9.552C397.385,512,512,397.385,512,256z"/>
<polygon style="fill:#FDE59A;" points="346.286,149.974 289.281,206.978 336.503,222.719 377.767,181.456 "/>
<polygon style="fill:#FEF2CC;" points="330.545,134.233 289.281,175.497 297.151,214.849 354.156,157.844 "/>
<polygon style="fill:#263230;" points="312.892,199.108 218.447,262.072 257.8,301.423 336.503,222.719 "/>
<rect x="206.071" y="209.956" transform="matrix(-0.7071 0.7071 -0.7071 -0.7071 607.0551 201.8526)" style="fill:#1A534A;" width="111.303" height="33.391"/>
<path style="fill:#FEF2CC;" d="M424.99,134.233l-17.653,17.653c-13.019,13.019-34.203,13.019-47.222,0h-15.741v15.741
	c21.733,21.733,56.97,21.734,78.704,0l9.783-9.783L424.99,134.233z"/>
<path style="fill:#FFFFFF;" d="M360.114,104.663l17.653-17.653l-23.611-7.87l-9.783,9.783c-21.734,21.734-21.733,56.97,0,78.704
	l15.741-15.741C347.096,138.867,347.096,117.682,360.114,104.663z"/>
<polygon style="fill:#1A534A;" points="448.601,142.103 432.86,157.844 393.508,118.492 394.535,103.778 409.248,102.752 "/>
<rect x="370.572" y="63.114" transform="matrix(-0.7071 0.7071 -0.7071 -0.7071 715.9099 -114.6603)" style="fill:#0E7563;" width="22.261" height="55.652"/>
<path style="fill:#1A534A;" d="M265.67,277.812l47.222,47.222l-74.77,74.771c-38.077,38.077-96.876,42.798-140.092,14.166
	l85-116.481L265.67,277.812z"/>
<path style="fill:#0E7563;" d="M234.188,277.812V246.33l-47.222-47.222l-74.771,74.771c-38.077,38.077-42.798,96.876-14.166,140.092
	L234.188,277.812z"/>
<g>
	
		<rect x="116.796" y="325.716" transform="matrix(-0.7071 0.7071 -0.7071 -0.7071 456.5703 484.5755)" style="fill:#1A534A;" width="22.261" height="22.261"/>
	
		<rect x="132.549" y="278.497" transform="matrix(-0.7071 0.7071 -0.7071 -0.7071 450.0735 392.828)" style="fill:#1A534A;" width="22.261" height="22.261"/>
</g>
<path style="fill:#0E7563;" d="M249.929,262.072l-20.463,4.723l-14.402,30.142c12.566,6.006,27.925,3.556,38.013-6.531
	l12.593-12.593L249.929,262.072z"/>
<path style="fill:#02967D;" d="M234.188,246.331l-12.593,12.593c-10.089,10.089-12.538,25.446-6.531,38.013l34.866-34.866
	L234.188,246.331z"/>
</svg>