<?xml version="1.0" encoding="UTF-8" standalone="no"?>
<!-- Generator: Adobe Illustrator 28.1.0, SVG Export Plug-In . SVG Version: 6.00 Build 0)  -->

<svg
   version="1.1"
   id="Layer_1"
   x="0px"
   y="0px"
   viewBox="0 0 500 500"
   xml:space="preserve"
   sodipodi:docname="slang-logo.svg"
   width="500"
   height="500"
   inkscape:version="1.3.2 (091e20e, 2023-11-25)"
   xmlns:inkscape="http://www.inkscape.org/namespaces/inkscape"
   xmlns:sodipodi="http://sodipodi.sourceforge.net/DTD/sodipodi-0.dtd"
   xmlns="http://www.w3.org/2000/svg"
   xmlns:svg="http://www.w3.org/2000/svg"><defs
   id="defs22" /><sodipodi:namedview
   id="namedview22"
   pagecolor="#ffffff"
   bordercolor="#000000"
   borderopacity="0.25"
   inkscape:showpageshadow="2"
   inkscape:pageopacity="0.0"
   inkscape:pagecheckerboard="0"
   inkscape:deskcolor="#d1d1d1"
   inkscape:zoom="0.63435911"
   inkscape:cx="848.10007"
   inkscape:cy="240.40011"
   inkscape:window-width="1920"
   inkscape:window-height="1080"
   inkscape:window-x="0"
   inkscape:window-y="228"
   inkscape:window-maximized="0"
   inkscape:current-layer="g22" />
<style
   type="text/css"
   id="style1">
	.st0{fill:url(#SVGID_1_);}
	.st1{fill:url(#SVGID_00000077309517550253948680000008878849543548492422_);}
	.st2{fill:#FF6633;}
	.st3{fill:#1FBEC9;}
	.st4{fill:url(#SVGID_00000017481875150334869080000006786332364244243895_);}
	.st5{fill:url(#SVGID_00000078017059045472829300000017110949182795380662_);}
</style>
<g
   id="g22">
	<g
   id="Layer_1_00000103945279519842149160000013492041312996072115_"
   transform="translate(-53.149918,-0.90938127)">
		<g
   id="g14">
			<linearGradient
   id="SVGID_1_"
   gradientUnits="userSpaceOnUse"
   x1="354.49249"
   y1="372.36859"
   x2="395.17871"
   y2="425.30991">
				<stop
   offset="0"
   style="stop-color:#15768C"
   id="stop1" />
				<stop
   offset="0.1694"
   style="stop-color:#188B9D"
   id="stop2" />
				<stop
   offset="0.3807"
   style="stop-color:#1A9EAC"
   id="stop3" />
				<stop
   offset="0.5982"
   style="stop-color:#1CA9B5"
   id="stop4" />
				<stop
   offset="0.8297"
   style="stop-color:#1CADB8"
   id="stop5" />
			</linearGradient>
			<path
   class="st0"
   d="m 235.3,419.1 c 42.2,28.7 91.6,38.7 136.8,23.1 51.7,-17.9 85.9,-65.5 96.1,-123.7 -34,25.2 -78,49.6 -127.7,69.3 -36.9,14.7 -72.7,25.1 -105.2,31.3 z"
   id="path5"
   style="fill:url(#SVGID_1_)" />
			
				<linearGradient
   id="SVGID_00000074417030740003172300000012793839770645475515_"
   gradientUnits="userSpaceOnUse"
   x1="146.0235"
   y1="146.1376"
   x2="305.34769"
   y2="62.681999">
				<stop
   offset="6.610756e-02"
   style="stop-color:#FF6633"
   id="stop6" />
				<stop
   offset="0.2371"
   style="stop-color:#FF7133"
   id="stop7" />
				<stop
   offset="0.6373"
   style="stop-color:#FF8733"
   id="stop8" />
				<stop
   offset="0.8966"
   style="stop-color:#FF8F33"
   id="stop9" />
			</linearGradient>
			<path
   style="fill:url(#SVGID_00000074417030740003172300000012793839770645475515_)"
   d="M 360.1,76.9 C 320,52.8 274.4,45.1 232.5,59.6 c -49.4,17.1 -82.7,61.2 -94.6,115.8 34,-25.2 78,-49.6 127.8,-69.4 32.9,-13.1 64.9,-22.8 94.4,-29.1 z"
   id="path9" />
			<path
   class="st2"
   d="m 514.4,101.9 c -10.3,-34.3 -73,-42.5 -154.2,-25 -29.5,6.3 -61.5,16 -94.4,29.1 -49.7,19.8 -93.8,44.2 -127.8,69.4 -50.2,37.2 -78.3,76.1 -69.9,104 6.9,23 38.7,34.3 83.3,32.7 44.4,-1.5 101.6,-15.8 159.7,-43.7 -69.9,15.5 -122.9,13.2 -121.6,-7 1.9,-29.6 73,-85.9 179.2,-125.5 15.4,-5.7 29.8,-10.7 43.3,-14.9 45.5,-14.3 80.2,-20.4 102.8,-18.2 -0.3,-0.3 -0.3,-0.6 -0.4,-0.9 z"
   id="path10" />
			<path
   class="st3"
   d="m 538.2,214.4 c -7.2,-23.9 -41,-35.1 -88.2,-32.5 -43.7,2.4 -98.7,16.6 -154.7,43.5 69.9,-15.5 122.9,-13.2 121.6,7 -1.9,29.6 -73,85.9 -179.2,125.5 -17.9,6.7 -34.5,12.3 -49.9,17 -42.2,12.9 -74.7,18.2 -96.1,16.1 0.1,0.3 0.1,0.6 0.2,0.9 9.9,32.8 67.4,41.7 143.4,27.2 32.5,-6.2 68.3,-16.6 105.2,-31.3 49.7,-19.8 93.7,-44.2 127.7,-69.3 50.3,-37.3 78.4,-76.2 70,-104.1 z"
   id="path11" />
			
				<linearGradient
   id="SVGID_00000129885214298090835240000013745419789409584040_"
   gradientUnits="userSpaceOnUse"
   x1="143.39301"
   y1="255.2188"
   x2="377.0686"
   y2="144.45061">
				<stop
   offset="0"
   style="stop-color:#ED5F2F"
   id="stop11" />
				<stop
   offset="1"
   style="stop-color:#FF6633"
   id="stop12" />
			</linearGradient>
			<path
   style="fill:url(#SVGID_00000129885214298090835240000013745419789409584040_)"
   d="m 189.4,261.4 c 1.9,-29.6 73,-85.9 179.2,-125.5 15.4,-5.7 29.8,-10.7 43.3,-14.9 -15.4,-17.9 -33,-32.8 -51.7,-44.1 -29.5,6.3 -61.5,16 -94.4,29.1 -49.7,19.8 -93.8,44.2 -127.8,69.4 -8.6,39.5 -5.9,84.5 10.3,128.8 1,2.7 2,5.3 3.1,7.9 44.4,-1.5 101.6,-15.8 159.7,-43.7 -70,15.5 -123,13.3 -121.7,-7 z"
   id="path12" />
			
				<linearGradient
   id="SVGID_00000069386021440980909700000004308139183728505008_"
   gradientUnits="userSpaceOnUse"
   x1="192.81509"
   y1="353.33041"
   x2="415.86911"
   y2="268.35739">
				<stop
   offset="0"
   style="stop-color:#1BACB5"
   id="stop13" />
				<stop
   offset="0.9115"
   style="stop-color:#1FBEC9"
   id="stop14" />
			</linearGradient>
			<path
   style="fill:url(#SVGID_00000069386021440980909700000004308139183728505008_)"
   d="m 456.3,197.6 c -2,-5.3 -4.1,-10.5 -6.4,-15.7 -43.7,2.4 -98.7,16.6 -154.7,43.5 69.9,-15.5 122.9,-13.2 121.6,7 -1.9,29.6 -73,85.9 -179.2,125.5 -17.9,6.7 -34.5,12.3 -49.9,17 14.1,17.6 30.2,32.5 47.5,44.3 32.5,-6.2 68.3,-16.6 105.2,-31.3 49.7,-19.8 93.7,-44.2 127.7,-69.3 6.7,-37.7 3.3,-79.6 -11.8,-121 z"
   id="path14" />
		</g>
	</g>
	<g
   id="Layer_3">
		
		
	</g>
</g>
</svg>
